<svg width="20" height="20" viewBox="0 0 20 20" fill="none" xmlns="http://www.w3.org/2000/svg">
<g clip-path="url(#clip0)">
<path d="M10.8583 1.55893L1.7 0.167261C1.275 0.100594 0.841667 0.217261 0.516667 0.492261C0.191667 0.775594 0 1.18393 0 1.60893V19.1673C0 19.6256 0.375 20.0006 0.833333 20.0006H3.54167V15.6256C3.54167 14.8173 4.19167 14.1673 5 14.1673H7.08333C7.89167 14.1673 8.54167 14.8173 8.54167 15.6256V20.0006H12.0833V3.00059C12.0833 2.28393 11.5667 1.67559 10.8583 1.55893ZM4.58333 12.2923H3.33333C2.98833 12.2923 2.70833 12.0123 2.70833 11.6673C2.70833 11.3223 2.98833 11.0423 3.33333 11.0423H4.58333C4.92833 11.0423 5.20833 11.3223 5.20833 11.6673C5.20833 12.0123 4.92833 12.2923 4.58333 12.2923ZM4.58333 9.79226H3.33333C2.98833 9.79226 2.70833 9.51226 2.70833 9.16726C2.70833 8.82226 2.98833 8.54226 3.33333 8.54226H4.58333C4.92833 8.54226 5.20833 8.82226 5.20833 9.16726C5.20833 9.51226 4.92833 9.79226 4.58333 9.79226ZM4.58333 7.29226H3.33333C2.98833 7.29226 2.70833 7.01226 2.70833 6.66726C2.70833 6.32226 2.98833 6.04226 3.33333 6.04226H4.58333C4.92833 6.04226 5.20833 6.32226 5.20833 6.66726C5.20833 7.01226 4.92833 7.29226 4.58333 7.29226ZM4.58333 4.79226H3.33333C2.98833 4.79226 2.70833 4.51226 2.70833 4.16726C2.70833 3.82226 2.98833 3.54226 3.33333 3.54226H4.58333C4.92833 3.54226 5.20833 3.82226 5.20833 4.16726C5.20833 4.51226 4.92833 4.79226 4.58333 4.79226ZM8.75 12.2923H7.5C7.155 12.2923 6.875 12.0123 6.875 11.6673C6.875 11.3223 7.155 11.0423 7.5 11.0423H8.75C9.095 11.0423 9.375 11.3223 9.375 11.6673C9.375 12.0123 9.095 12.2923 8.75 12.2923ZM8.75 9.79226H7.5C7.155 9.79226 6.875 9.51226 6.875 9.16726C6.875 8.82226 7.155 8.54226 7.5 8.54226H8.75C9.095 8.54226 9.375 8.82226 9.375 9.16726C9.375 9.51226 9.095 9.79226 8.75 9.79226ZM8.75 7.29226H7.5C7.155 7.29226 6.875 7.01226 6.875 6.66726C6.875 6.32226 7.155 6.04226 7.5 6.04226H8.75C9.095 6.04226 9.375 6.32226 9.375 6.66726C9.375 7.01226 9.095 7.29226 8.75 7.29226ZM8.75 4.79226H7.5C7.155 4.79226 6.875 4.51226 6.875 4.16726C6.875 3.82226 7.155 3.54226 7.5 3.54226H8.75C9.095 3.54226 9.375 3.82226 9.375 4.16726C9.375 4.51226 9.095 4.79226 8.75 4.79226Z" fill="#000"/>
<path d="M18.85 9.03449L12.9167 7.79199V19.9995H18.5417C19.3459 19.9995 20 19.3453 20 18.5412V10.4595C20 9.77116 19.5309 9.18533 18.85 9.03449ZM16.875 17.4995H15.625C15.28 17.4995 15 17.2195 15 16.8745C15 16.5295 15.28 16.2495 15.625 16.2495H16.875C17.22 16.2495 17.5 16.5295 17.5 16.8745C17.5 17.2195 17.22 17.4995 16.875 17.4995ZM16.875 14.9995H15.625C15.28 14.9995 15 14.7195 15 14.3745C15 14.0295 15.28 13.7495 15.625 13.7495H16.875C17.22 13.7495 17.5 14.0295 17.5 14.3745C17.5 14.7195 17.22 14.9995 16.875 14.9995ZM16.875 12.4995H15.625C15.28 12.4995 15 12.2195 15 11.8745C15 11.5295 15.28 11.2495 15.625 11.2495H16.875C17.22 11.2495 17.5 11.5295 17.5 11.8745C17.5 12.2195 17.22 12.4995 16.875 12.4995Z" fill="#000"/>
</g>
<defs>
<clipPath id="clip0">
<rect width="20" height="20" fill="white"/>
</clipPath>
</defs>
</svg>
