<svg width="20" height="20" viewBox="0 0 20 20" fill="none" xmlns="http://www.w3.org/2000/svg">
<g id="Icon / Feedback">
<path id="icon/editor/insert_comment_24px" fill-rule="evenodd" clip-rule="evenodd" d="M3.33332 1.66666H16.6667C17.5833 1.66666 18.3333 2.41666 18.3333 3.33332V18.3333L15 15H3.33332C2.41666 15 1.66666 14.25 1.66666 13.3333V3.33332C1.66666 2.41666 2.41666 1.66666 3.33332 1.66666ZM5.83333 11.6667H14.1667C14.625 11.6667 15 11.2917 15 10.8333C15 10.375 14.625 9.99998 14.1667 9.99998H5.83333C5.375 9.99998 5 10.375 5 10.8333C5 11.2917 5.375 11.6667 5.83333 11.6667ZM14.1667 9.16665H5.83333C5.375 9.16665 5 8.79165 5 8.33332C5 7.87498 5.375 7.49998 5.83333 7.49998H14.1667C14.625 7.49998 15 7.87498 15 8.33332C15 8.79165 14.625 9.16665 14.1667 9.16665ZM5.83333 6.66665H14.1667C14.625 6.66665 15 6.29165 15 5.83332C15 5.37498 14.625 4.99998 14.1667 4.99998H5.83333C5.375 4.99998 5 5.37498 5 5.83332C5 6.29165 5.375 6.66665 5.83333 6.66665Z" fill="#000"/>
</g>
</svg>
