<?xml version="1.0" encoding="UTF-8"?>
<svg xmlns="http://www.w3.org/2000/svg" xmlns:xlink="http://www.w3.org/1999/xlink" width="25pt" height="25pt" viewBox="0 0 25 25" version="1.1">
<g id="surface1">
<path style=" stroke:none;fill-rule:nonzero;fill-opacity:1;" d="M 18.132812 6.878906 C 18.40625 7.152344 18.769531 7.304688 19.15625 7.304688 C 19.550781 7.304688 19.917969 7.152344 20.191406 6.871094 C 20.753906 6.300781 20.75 5.371094 20.183594 4.804688 C 19.90625 4.53125 19.542969 4.378906 19.15625 4.378906 C 18.765625 4.378906 18.398438 4.535156 18.125 4.8125 C 17.5625 5.386719 17.566406 6.3125 18.132812 6.878906 Z M 18.78125 5.460938 C 18.882812 5.359375 19.015625 5.304688 19.15625 5.304688 C 19.296875 5.304688 19.429688 5.359375 19.53125 5.457031 C 19.738281 5.667969 19.742188 6.011719 19.535156 6.222656 C 19.433594 6.324219 19.300781 6.382812 19.15625 6.382812 C 19.019531 6.382812 18.886719 6.328125 18.785156 6.226562 C 18.574219 6.015625 18.574219 5.671875 18.78125 5.460938 Z M 18.78125 5.460938 " fill="#000"/>
<path style=" stroke:none;fill-rule:nonzero;fill-opacity:1;" d="M 24.863281 6.40625 L 18.59375 0.136719 C 18.507812 0.046875 18.390625 0 18.265625 0 C 18.144531 0 18.027344 0.046875 17.941406 0.136719 L 0.136719 17.941406 C -0.046875 18.121094 -0.046875 18.414062 0.136719 18.59375 L 6.40625 24.863281 C 6.492188 24.953125 6.609375 25 6.734375 25 C 6.855469 25 6.972656 24.953125 7.058594 24.863281 L 8.9375 22.984375 L 11.246094 20.679688 L 13.550781 18.371094 C 13.550781 18.371094 13.550781 18.371094 13.554688 18.371094 L 15.859375 16.066406 C 15.859375 16.066406 15.859375 16.0625 15.859375 16.0625 L 18.164062 13.757812 C 18.164062 13.757812 18.167969 13.757812 18.167969 13.757812 L 20.472656 11.449219 L 24.863281 7.058594 C 25.046875 6.878906 25.046875 6.585938 24.863281 6.40625 Z M 20.148438 10.472656 L 19.117188 9.441406 C 18.9375 9.261719 18.644531 9.261719 18.464844 9.441406 C 18.285156 9.625 18.285156 9.914062 18.464844 10.097656 L 19.492188 11.125 L 17.839844 12.777344 L 16.8125 11.75 C 16.628906 11.570312 16.339844 11.570312 16.160156 11.75 C 15.976562 11.929688 15.976562 12.222656 16.160156 12.402344 L 17.1875 13.429688 L 15.53125 15.085938 L 14.503906 14.058594 C 14.324219 13.878906 14.03125 13.875 13.851562 14.058594 C 13.671875 14.238281 13.671875 14.53125 13.851562 14.710938 L 14.878906 15.738281 L 13.226562 17.394531 L 12.195312 16.363281 C 12.015625 16.183594 11.722656 16.183594 11.542969 16.363281 C 11.363281 16.542969 11.363281 16.835938 11.542969 17.015625 L 12.574219 18.046875 L 10.917969 19.699219 L 9.890625 18.671875 C 9.710938 18.492188 9.417969 18.492188 9.238281 18.671875 C 9.058594 18.851562 9.058594 19.144531 9.238281 19.324219 L 10.265625 20.351562 L 8.613281 22.007812 L 7.582031 20.976562 C 7.402344 20.796875 7.109375 20.796875 6.929688 20.980469 C 6.75 21.160156 6.75 21.449219 6.929688 21.632812 L 7.957031 22.660156 L 6.734375 23.886719 L 1.113281 18.265625 L 18.265625 1.113281 L 23.886719 6.734375 Z M 20.148438 10.472656 " fill="#000"/>
</g>
</svg>