<?xml version="1.0" encoding="UTF-8"?>
<svg xmlns="http://www.w3.org/2000/svg" xmlns:xlink="http://www.w3.org/1999/xlink" width="20px" height="20px" viewBox="0 0 20 20" version="1.1">
<g id="surface1">
<path style=" stroke:none;fill-rule:nonzero;fill-opacity:1;" d="M 17.953125 5.191406 L 13.613281 0.296875 C 13.441406 0.0859375 13.230469 0 12.976562 0 L 2.679688 0 C 2.214844 0 1.828125 0.382812 1.828125 0.851562 L 1.828125 19.148438 C 1.828125 19.617188 2.214844 20 2.679688 20 L 17.320312 20 C 17.785156 20 18.128906 19.617188 18.171875 19.191406 L 18.171875 5.746094 C 18.167969 5.535156 18.085938 5.363281 17.953125 5.191406 Z M 13.785156 3.011719 L 15.449219 4.898438 L 13.785156 4.898438 Z M 16.464844 18.34375 L 3.53125 18.34375 L 3.53125 1.660156 L 12.125 1.660156 L 12.125 5.703125 C 12.125 6.167969 12.507812 6.554688 12.976562 6.554688 L 16.464844 6.554688 Z M 16.464844 18.34375 " fill="#000"/>
<path style=" stroke:none;fill-rule:nonzero;fill-opacity:1;" d="M 5.570312 9.617188 C 5.570312 10.082031 5.957031 10.46875 6.421875 10.46875 L 13.574219 10.46875 C 14.039062 10.46875 14.425781 10.082031 14.425781 9.617188 C 14.425781 9.152344 14.039062 8.765625 13.574219 8.765625 L 6.421875 8.765625 C 5.957031 8.765625 5.570312 9.152344 5.570312 9.617188 Z M 5.570312 9.617188 " fill="#000"/>
<path style=" stroke:none;fill-rule:nonzero;fill-opacity:1;" d="M 13.574219 14.042969 L 6.421875 14.042969 C 5.957031 14.042969 5.570312 14.429688 5.570312 14.894531 C 5.570312 15.359375 5.957031 15.746094 6.421875 15.746094 L 13.574219 15.746094 C 14.039062 15.746094 14.425781 15.359375 14.425781 14.894531 C 14.425781 14.429688 14.039062 14.042969 13.574219 14.042969 Z M 13.574219 14.042969 " fill="#000"/>
</g>
</svg>